<svg height="512pt" viewBox="0 0 512 512" width="512pt" xmlns="http://www.w3.org/2000/svg"><path d="m482 271h15c8.285156 0 15-6.714844 15-15 0-140.960938-115.050781-256-256-256-140.960938 0-256 115.050781-256 256 0 3.976562 1.582031 7.792969 4.394531 10.605469 2.8125 2.816406 6.628907 4.394531 10.605469 4.394531h15v90h-15c-8.285156 0-15 6.714844-15 15 0 74.640625 61.378906 136 136 136h240c74.640625 0 136-61.378906 136-136 0-8.285156-6.714844-15-15-15h-15c0-10.933594 0-79.03125 0-90zm-30 91.003906c-30.273438 4.0625-57.886719 20.238282-75.960938 44.324219-20.804687-28.066406-53.996093-45.328125-90.039062-45.328125h-123.472656c15.367187-18.832031 38.402344-30 63.472656-30h226zm-392-29.636718c19.351562 3.535156 36.929688 13.773437 49.328125 28.632812h-49.328125zm196-302.367188c119.574219 0 217.757812 93.363281 225.507812 211.011719l-451.015624-.011719c7.75-117.648438 105.933593-211 225.507812-211zm196 241v30h-226c-20.828125 0-41.207031 5.789062-58.925781 16.738281-12.148438 7.511719-22.6875 17.222657-31.113281 28.589844-18.074219-24.085937-45.6875-40.261719-75.960938-44.324219v-31.015625zm-76 211h-240c-53.359375 0-97.632812-39.628906-104.941406-91h254.941406c31.15625 0 59.183594 17.234375 73.234375 45.015625l2.996094 6.929687c2.371093 5.496094 7.785156 9.054688 13.769531 9.054688s11.398438-3.558594 13.769531-9.054688l2.996094-6.929687c13.851563-27.359375 42.945313-45.027344 74.234375-45.027344h13.941406c-7.308594 51.371094-51.582031 91.011719-104.941406 91.011719zm0 0"/><path d="m256 121c-8.285156 0-15 6.714844-15 15v30c0 8.285156 6.714844 15 15 15s15-6.714844 15-15v-30c0-8.285156-6.714844-15-15-15zm0 0"/><path d="m155.394531 95.394531-30 30c-5.859375 5.855469-5.859375 15.351563 0 21.210938 5.855469 5.859375 15.355469 5.859375 21.210938 0l30-30c5.859375-5.859375 5.859375-15.355469 0-21.210938-5.855469-5.859375-15.355469-5.859375-21.210938 0zm0 0"/><path d="m356.605469 95.394531c-5.855469-5.859375-15.355469-5.859375-21.210938 0-5.859375 5.855469-5.859375 15.351563 0 21.210938l30 30c5.855469 5.859375 15.351563 5.859375 21.210938 0s5.859375-15.355469 0-21.210938zm0 0"/></svg>