<svg height="512pt" viewBox="-31 0 512 512" width="512pt" xmlns="http://www.w3.org/2000/svg"><path d="m30 135v196h-15c-8.285156 0-15 6.714844-15 15 0 41.355469 33.644531 75 75 75h99.261719l-20.109375 61h-19.152344c-8.285156 0-15 6.714844-15 15s6.714844 15 15 15h180c8.285156 0 15-6.714844 15-15s-6.714844-15-15-15h-19.152344l-20.109375-61h99.261719c41.355469 0 75-33.644531 75-75 0-8.285156-6.714844-15-15-15h-15v-196c0-24.8125-20.1875-45-45-45h-137.578125c1.664063-4.695312 2.578125-9.742188 2.578125-15 0-9.503906-2.96875-18.320312-8.015625-25.589844 14.707031-12.457031 33.410156-19.410156 53.015625-19.410156 8.285156 0 15-6.714844 15-15s-6.714844-15-15-15c-29.347656 0-57.214844 11.410156-78.03125 31.628906-3.816406-1.054687-7.824219-1.628906-11.96875-1.628906-4.964844 0-9.738281.820312-14.207031 2.3125-19.726563-20.671875-46.722657-32.3125-75.792969-32.3125h-30c-8.285156 0-15 6.714844-15 15 0 29.355469 12.113281 55.925781 31.597656 75h-16.597656c-24.8125 0-45 20.1875-45 45zm234.261719 347h-78.523438l20.113281-61h38.300782zm110.738281-91c-1.75 0-289.390625 0-300 0-19.554688 0-36.238281-12.550781-42.429688-30.011719h384.859376c-6.191407 17.460938-22.871094 30.011719-42.429688 30.011719zm-315-60v-151h45c8.269531 0 15 6.730469 15 15v30c0 24.8125 20.1875 45 45 45s45-20.1875 45-45v-30c0-8.269531 6.730469-15 15-15s15 6.730469 15 15v30c0 24.8125 20.1875 45 45 45s45-20.1875 45-45v-30c0-8.269531 6.730469-15 15-15h45v151zm150-256c0 8.269531-6.730469 15-15 15s-15-6.730469-15-15 6.730469-15 15-15 15 6.730469 15 15zm-105-45c19.730469 0 38.125 7.515625 52.003906 20.9375-4.429687 6.964844-7.003906 15.214844-7.003906 24.0625 0 4.851562.78125 9.519531 2.207031 13.898438-30.382812-5.246094-54.570312-28.824219-60.699219-58.898438zm270 90c8.269531 0 15 6.730469 15 15v15h-45c-24.8125 0-45 20.1875-45 45v30c0 8.269531-6.730469 15-15 15s-15-6.730469-15-15v-30c0-24.8125-20.1875-45-45-45s-45 20.1875-45 45v30c0 8.269531-6.730469 15-15 15s-15-6.730469-15-15v-30c0-24.8125-20.1875-45-45-45h-45v-15c0-8.269531 6.730469-15 15-15zm0 0"/></svg>