<svg height="511pt" viewBox="1 -6 511.99986 511" width="511pt" xmlns="http://www.w3.org/2000/svg"><path d="m497 180.5h-265v-60.796875l263.824219 20.75c.398437.03125.796875.046875 1.191406.046875 7.75 0 14.320313-5.964844 14.9375-13.824219.648437-8.261719-5.519531-15.480469-13.777344-16.132812l-266.175781-20.933594v-44.109375h265c8.28125 0 15-6.714844 15-15s-6.71875-15-15-15h-265c0-8.285156-6.714844-15-15-15s-15 6.714844-15 15h-30c0-8.285156-6.714844-15-15-15s-15 6.714844-15 15h-30c0-8.285156-6.714844-15-15-15s-15 6.714844-15 15h-30c-8.285156 0-15 6.714844-15 15s6.714844 15 15 15h30v32.3125l-28.824219-2.265625c-8.226562-.65625-15.480469 5.515625-16.128906 13.777344-.648437 8.257812 5.519531 15.476562 13.777344 16.128906l31.175781 2.453125v72.59375h-67c-8.285156 0-15 6.714844-15 15v19c0 90.128906 47.476562 173.480469 124.492188 219.660156v51.335938c0 8.285156 6.714843 15 15 15h233.015624c8.285157 0 15-6.714844 15-15v-51.335938c77.015626-46.179687 124.492188-129.53125 124.492188-219.660156v-19c0-8.285156-6.71875-15-15-15zm-295 0h-30v-65.515625l30 2.359375zm0-135v41.75l-30-2.359375v-39.390625zm-90 0h30v37.03125l-30-2.359375zm0 64.765625 30 2.359375v67.875h-30zm245.507812 360.234375h-203.015624v-30h203.015624zm124.492188-256c0 80.933594-43.359375 155.675781-113.433594 196h-225.132812c-70.074219-40.324219-113.433594-115.066406-113.433594-196v-4h452zm0 0"/></svg>