<svg height="511pt" viewBox="0 -52 511.99917 511" width="511pt" xmlns="http://www.w3.org/2000/svg"><path d="m470.296875 207.519531c-3.585937-.785156-6.578125-3.101562-8.011719-6.207031-27.277344-59.082031-86.960937-97.25-152.066406-97.25h-9.476562c9.839843-21.363281 2.890624-46.65625-15.882813-60.265625l7.699219-23.5625c2.582031-7.898437-1.734375-16.402344-9.636719-18.984375-7.910156-2.589844-16.414063 1.726562-18.992187 9.628906l-7.703126 23.550782c-35.980468-.136719-59.851562 37.15625-44.972656 69.632812h-9.476562c-65.308594 0-125.070313 38.339844-152.257813 97.671875-1.304687 2.851563-4.144531 4.992187-7.609375 5.734375-52.808594 11.390625-54.617187 77.703125-11.59375 97.800781l14.59375 61.542969c5.613282 23.683594 26.535156 40.226562 50.871094 40.226562h320.433594c24.335937 0 45.257812-16.542968 50.867187-40.214843l14.597657-61.53125c43.445312-20.101563 40.675781-86.429688-11.382813-97.773438zm-54.082031 169.402344h-320.433594c-10.320312 0-19.1875-7.007813-21.566406-17.054687l-12.035156-50.75c8.921874-1.726563 17.15625-5.742188 23.953124-11.605469 19.523438 16.734375 48.363282 16.769531 67.925782-.039063 19.511718 16.785156 48.414062 16.808594 67.953125 0 19.539062 16.785156 48.40625 16.808594 67.96875 0 19.511719 16.785156 48.414062 16.808594 67.953125 0 19.539062 16.785156 48.40625 16.808594 67.96875 0 6.785156 5.820313 15.007812 9.867188 23.910156 11.625l-12.035156 50.769532c-2.378906 10.046874-11.242188 17.054687-21.5625 17.054687zm57.070312-101.546875c-11.558594 8.933594-28.175781 4.132812-33.578125-8.65625-5.234375-12.03125-22.371093-12.039062-27.609375 0-7.441406 17.613281-32.933594 17.566406-40.347656 0-5.257812-12.027344-22.359375-12.039062-27.617188 0-7.453124 17.617188-32.929687 17.558594-40.347656 0-5.257812-12.058594-22.378906-12.011719-27.609375 0-7.429687 17.585938-32.925781 17.582031-40.355469 0-5.234374-12.03125-22.371093-12.039062-27.609374 0-7.425782 17.574219-32.902344 17.601562-40.347657 0-5.253906-12.03125-22.359375-12.039062-27.617187 0-7.425782 17.589844-32.917969 17.582031-40.347656 0-5.234376-12.03125-22.371094-12.039062-27.609376 0-5.464843 12.941406-22.304687 17.519531-33.578124 8.644531-13.039063-10.171875-12.449219-33.632812 9.546874-38.449219 12.6875-2.730468 23.402344-11.195312 28.640626-22.628906 22.296874-48.660156 71.320312-80.101562 124.878906-80.101562h108.445312c53.398438 0 102.351563 31.300781 124.71875 79.75 6.433594 13.902344 16.875 19.496094 30.667969 23.441406 20.0625 5.457031 20.441406 28.179688 7.675781 38zm-235.417968-197.664062c3.253906-9.976563 14.066406-15.480469 24.050781-12.207032 9.957031 3.25 15.480469 14.019532 12.210937 24.054688-3.265625 9.996094-14.058594 15.46875-24.054687 12.207031-10.109375-3.308594-15.460938-14.128906-12.207031-24.054687zm0 0"/><path d="m197.917969 160.917969c-7.296875-3.996094-16.441407-1.308594-20.4375 5.992187l-9.507813 17.398438c-3.984375 7.296875-1.304687 16.441406 5.992188 20.4375 7.480468 4.054687 16.515625 1.167968 20.441406-5.992188l9.507812-17.40625c3.984376-7.300781 1.304688-16.445312-5.996093-20.429687zm0 0"/><path d="m255.996094 159.070312c-8.3125 0-15.058594 6.746094-15.058594 15.058594v17.398438c0 8.320312 6.746094 15.058594 15.058594 15.058594 8.324218 0 15.058594-6.738282 15.058594-15.058594v-17.398438c0-8.3125-6.734376-15.058594-15.058594-15.058594zm0 0"/><path d="m334.515625 166.910156c-3.988281-7.300781-13.132813-9.980468-20.441406-5.992187-7.296875 3.984375-9.980469 13.128906-5.992188 20.429687l9.503907 17.40625c3.980468 7.257813 13.078124 10 20.441406 5.992188 7.300781-3.996094 9.980468-13.140625 5.992187-20.4375zm0 0"/></svg>