<?xml version="1.0" encoding="iso-8859-1"?>
<!-- Generator: Adobe Illustrator 19.0.0, SVG Export Plug-In . SVG Version: 6.00 Build 0)  -->
<svg version="1.1" id="Layer_1" xmlns="http://www.w3.org/2000/svg" xmlns:xlink="http://www.w3.org/1999/xlink" x="0px" y="0px"
	 viewBox="0 0 512.001 512.001" style="enable-background:new 0 0 512.001 512.001;" xml:space="preserve">
<g>
	<g>
		<path d="M508.668,114.525c-27.139-50.542-71.327-90.46-124.421-112.4c-7.054-2.916-15.039-2.844-22.106,0.303
			c-6.98,3.106-12.454,9.016-15.015,16.211l-4.336,12.182c-29.556-11.945-60.815-18.011-93.189-18.011
			c-66.669,0-129.348,25.962-176.49,73.105C25.97,133.058,0.007,195.737,0.007,262.406c0,66.669,25.962,129.348,73.104,176.49
			c47.142,47.142,109.821,73.104,176.49,73.104c66.669,0,129.348-25.962,176.49-73.104c47.142-47.142,73.104-109.821,73.104-176.49
			c0-34.685-7.313-69.159-21.221-100.727l18.025-8.561c6.897-3.275,12.221-9.321,14.608-16.593
			C512.988,129.267,512.281,121.246,508.668,114.525z M249.602,478.168c-118.972,0-215.763-96.79-215.763-215.762
			S130.63,46.643,249.602,46.643c28.461,0,55.925,5.397,81.838,16.064l-8.646,24.291c-23.074-9.611-48.03-14.649-73.192-14.649
			c-104.798,0-190.058,85.26-190.058,190.058s85.259,190.058,190.058,190.058s190.058-85.26,190.058-190.058
			c0-25.887-5.314-51.555-15.474-75.18l23.237-11.037c11.773,27.043,17.94,56.54,17.94,86.217
			C465.364,381.378,368.574,478.168,249.602,478.168z M284.702,236.818c0.091,0.086,0.176,0.177,0.27,0.262
			c7.188,6.495,17.525,7.944,26.172,3.839l82.46-39.166c8.03,19.094,12.225,39.781,12.225,60.654c0,9.219-0.809,18.253-2.348,27.038
			c-1.367-4.302-3.347-8.438-5.938-12.288c-7.138-10.609-17.977-17.805-30.526-20.26c-12.548-2.454-25.303,0.122-35.912,7.26
			c-7.751,5.215-9.808,15.726-4.593,23.477c5.217,7.752,15.726,9.808,23.479,4.593c3.11-2.092,6.852-2.849,10.529-2.128
			c3.68,0.719,6.859,2.83,8.952,5.941c4.32,6.421,2.61,15.16-3.813,19.481c-7.751,5.215-9.808,15.726-4.593,23.477
			c3.266,4.855,8.61,7.476,14.052,7.476c2.402,0,4.822-0.514,7.094-1.569c-27.619,44.231-76.729,73.727-132.606,73.727
			c-86.143,0-156.226-70.083-156.226-156.226s70.081-156.226,156.225-156.226c21.301,0,42.417,4.37,61.834,12.724l-32.935,92.524
			C275.298,220.425,277.742,230.337,284.702,236.818z M318.492,199.973l50.04-140.576v-0.001l8.398-23.594
			c41.537,18.568,76.345,50.01,98.975,89.404L318.492,199.973z"/>
	</g>
</g>
<g>
	<g>
		<path d="M207.449,125.434c-26.394,0-47.868,21.475-47.868,47.868c0,9.342,7.574,16.916,16.916,16.916
			c9.342,0,16.916-7.574,16.916-16.916c-0.001-7.739,6.296-14.036,14.036-14.036s14.036,6.296,14.036,14.036
			c0,9.342,7.574,16.916,16.916,16.916c9.342,0,16.916-7.574,16.916-16.916C255.318,146.907,233.843,125.434,207.449,125.434z"/>
	</g>
</g>
<g>
	<g>
		<path d="M286.198,353.196c-0.451-9.33-8.395-16.558-17.711-16.081c-9.331,0.449-16.533,8.379-16.083,17.71
			c0.372,7.749-5.595,14.322-13.345,14.696c-7.731,0.369-14.322-5.614-14.696-13.345c-0.45-9.332-8.405-16.551-17.71-16.083
			c-9.332,0.449-16.533,8.379-16.083,17.71c0.615,12.772,6.167,24.539,15.633,33.134c9.328,8.469,21.526,13,34.484,12.375
			c12.772-0.615,24.539-6.167,33.134-15.633C282.417,378.214,286.813,365.968,286.198,353.196z"/>
	</g>
</g>
<g>
	<g>
		<path d="M422.469,70.257c-9.426-8.639-21.656-13.084-34.426-12.535c-9.333,0.406-16.57,8.302-16.164,17.636
			c0.406,9.333,8.308,16.57,17.636,16.165c3.742-0.168,7.329,1.142,10.094,3.675c2.764,2.533,4.376,5.992,4.539,9.737
			c0.396,9.084,7.882,16.182,16.887,16.181c0.249,0,0.498-0.006,0.749-0.017c9.333-0.406,16.57-8.302,16.164-17.636
			C437.394,90.69,431.896,78.897,422.469,70.257z"/>
	</g>
</g>
<g>
	<g>
		<path d="M146.561,263.423c6.606-6.605,6.606-17.315,0-23.922c-6.606-6.605-17.318-6.605-23.923,0
			c-18.663,18.664-18.663,49.033,0,67.697c6.606,6.606,17.315,6.606,23.923,0c6.606-6.606,6.606-17.317,0-23.923
			C141.088,277.801,141.088,268.896,146.561,263.423z"/>
	</g>
</g>
<g>
	<g>
		<path d="M373.101,118.122c-7.963-4.883-18.379-2.383-23.262,5.581c-7.77,12.674-9.236,27.92-4.026,41.827
			c2.545,6.794,8.993,10.987,15.844,10.987c11.764,0,19.988-11.779,15.839-22.855c-1.528-4.078-1.095-8.553,1.188-12.277
			C383.566,133.42,381.067,123.004,373.101,118.122z"/>
	</g>
</g>
<g>
	<g>
		<path d="M276.637,281.352c-16.439-20.651-46.613-24.08-67.266-7.642c-7.31,5.818-8.519,16.461-2.701,23.771
			s16.461,8.519,23.771,2.701c6.058-4.82,14.904-3.815,19.724,2.241c5.821,7.313,16.463,8.516,23.771,2.7
			C281.244,299.304,282.455,288.662,276.637,281.352z"/>
	</g>
</g>
<g>
</g>
<g>
</g>
<g>
</g>
<g>
</g>
<g>
</g>
<g>
</g>
<g>
</g>
<g>
</g>
<g>
</g>
<g>
</g>
<g>
</g>
<g>
</g>
<g>
</g>
<g>
</g>
<g>
</g>
</svg>
