<?xml version="1.0" encoding="iso-8859-1"?>
<!-- Generator: Adobe Illustrator 19.0.0, SVG Export Plug-In . SVG Version: 6.00 Build 0)  -->
<svg version="1.1" id="Capa_1" xmlns="http://www.w3.org/2000/svg" xmlns:xlink="http://www.w3.org/1999/xlink" x="0px" y="0px"
	 viewBox="0 0 512 512" style="enable-background:new 0 0 512 512;" xml:space="preserve">
<g>
	<g>
		<path d="M510.002,261.072c-18.756-63.105-53.817-120.517-101.391-166.029C362.079,50.527,304.652,18.29,242.54,1.813
			c-23.265-6.173-47.358,6.081-56.041,28.499L0,511.779l482.42-193.477C505.134,309.191,516.991,284.588,510.002,261.072z
			 M169.649,156.92c7.632-4.043,16.145-6.169,24.887-6.169c29.356,0,53.24,23.883,53.24,53.24s-23.883,53.24-53.24,53.24
			c-22.6,0-42.589-14.261-50.109-35.196L169.649,156.92z M110.056,342.862c9.926,0,18.001,8.075,18.001,18.001
			c0,9.926-8.076,18.001-18.001,18.001c-9.926,0-18.001-8.076-18.001-18.001C92.055,350.938,100.13,342.862,110.056,342.862z
			 M220.786,390.887c-1.724-22.645,11.308-44.848,33.439-53.624c21.933-8.699,46.52-1.6,60.835,15.815L220.786,390.887z
			 M343.78,341.559c-8.97-13.935-21.889-24.881-37.464-31.477c-20.268-8.583-42.696-8.84-63.157-0.727
			c-37.597,14.909-58.393,54.598-51.062,93.037L52.948,458.199l24.181-62.427c8.604,8.121,20.19,13.114,32.926,13.114
			c26.479,0,48.022-21.543,48.022-48.022c0-26.479-21.543-48.022-48.022-48.022c-0.272,0-0.54,0.016-0.812,0.021l21.465-55.414
			c15.461,18.423,38.599,29.802,63.827,29.802c45.909,0,83.261-37.35,83.261-83.261s-37.35-83.261-83.261-83.261
			c-3.754,0-7.48,0.261-11.162,0.755l11.622-30.002c55.417,14.769,103.057,40.81,141.749,77.531
			c6.039,5.731,11.801,11.687,17.304,17.848c-20.381,5.553-35.413,24.214-35.413,46.331c0,26.479,21.542,48.022,48.021,48.022
			c14.982,0,28.379-6.9,37.193-17.685c6.784,14.941,12.512,30.636,17.178,47.049L343.78,341.559z M366.658,215.19
			c9.926,0,18.001,8.076,18.001,18.001c0,9.926-8.075,18.001-18.001,18.001s-18-8.076-18-18.001
			C348.658,223.266,356.732,215.19,366.658,215.19z M471.244,290.439l-22.222,8.912C414.37,181.559,327.005,96.748,205.897,63.344
			l8.594-22.187c2.6-6.711,9.012-10.905,15.928-10.905c1.462,0,2.948,0.188,4.423,0.579
			c57.226,15.179,110.138,44.884,153.016,85.905c43.81,41.911,76.096,94.778,93.368,152.889
			C483.771,278.187,479.48,287.135,471.244,290.439z"/>
	</g>
</g>
<g>
</g>
<g>
</g>
<g>
</g>
<g>
</g>
<g>
</g>
<g>
</g>
<g>
</g>
<g>
</g>
<g>
</g>
<g>
</g>
<g>
</g>
<g>
</g>
<g>
</g>
<g>
</g>
<g>
</g>
</svg>
