<svg height="512pt" viewBox="0 -8 512 512" width="512pt" xmlns="http://www.w3.org/2000/svg"><path d="m470.820312 188.53125c1.988282-5.800781 3.132813-11.910156 3.378907-18.140625.65625-16.953125-5.328125-33.144531-16.847657-45.597656-9.140624-9.871094-20.898437-16.460938-33.839843-19.085938-7.289063-19.144531-23.605469-33.75-43.367188-38.964843-5.921875-30.472657-32.816406-53.542969-64.988281-53.542969-17.984375 0-34.324219 7.214843-46.261719 18.898437-11.277343-9.449218-25.796875-15.148437-41.632812-15.148437-26.851563 0-49.953125 16.410156-59.804688 39.726562-10.585937-10.84375-23.703125-20.683593-39.273437-29.433593-31.472656-17.710938-61.839844-24.558594-63.121094-24.84375l-10.875-2.398438-5.679688 9.582031c-1.21875 2.050781-29.8125 50.96875-30.4375 103.730469-.226562 18.140625 2.910157 34.835938 9.324219 49.605469 3.894531 8.988281 9.113281 17.535156 15.609375 25.613281h-43.003906v15.371094c0 48.171875 13.457031 95.113281 38.914062 135.738281 23.0625 36.804687 55.035157 67.121094 92.863282 88.152344v68.25h248.441406v-68.25c37.828125-21.03125 69.804688-51.347657 92.863281-88.152344 25.460938-40.625 38.917969-87.566406 38.917969-135.738281v-15.371094zm-243.558593-140.832031c9.878906 0 18.785156 4.210937 25.027343 10.945312-2.171874 6.539063-3.339843 13.519531-3.339843 20.765625 0 2.222656.113281 4.417969.316406 6.578125-14.605469 4.542969-27.242187 14.277344-35.347656 27.273438-12.207031-5.207031-20.785157-17.328125-20.785157-31.421875 0-18.820313 15.3125-34.140625 34.128907-34.140625zm52.433593 31.710937c0-8.3125 2.871094-15.960937 7.675782-22.007812 6.5-8.199219 16.542968-13.457032 27.785156-13.457032 15.078125 0 27.992188 9.460938 33.105469 22.753907-16.910157 4.4375-31.476563 15.753906-39.898438 31.125-4.941406-4.097657-10.507812-7.46875-16.503906-9.929688-3.78125-1.566406-7.738281-2.765625-11.824219-3.578125-.226562-1.605468-.339844-3.246094-.339844-4.90625zm132.316407 55.785156c8.742187.335938 16.828125 4.058594 22.773437 10.484376 5.941406 6.425781 9.027344 14.769531 8.691406 23.519531-.277343 7.105469-2.839843 13.859375-7.269531 19.332031h-58.214843c.738281-21.996094-9.859376-41.804688-26.554688-53.777344-5.011719-3.585937-10.574219-6.476562-16.539062-8.496094-1.25-.429687-2.523438-.808593-3.804688-1.15625l1.3125-5.105468c3.640625-14.183594 16.492188-24.25 31.003906-24.558594.65625-.03125 1.3125-.03125 1.976563 0 4.644531.183594 9.082031 1.355469 13.089843 3.324219 9.183594 4.507812 16.058594 13.210937 17.90625 23.703125l2.179688 12.484375 12.667969.234375c.226562.011718.453125.011718.675781.011718zm-225.898438 53.335938c-.421875-2.328125-.585937-4.703125-.492187-7.125.277344-6.976562 2.683594-13.527344 6.980468-18.96875l.316407-.390625c2.050781-2.53125 4.417969-4.703125 7.011719-6.464844 5.695312-3.917969 12.511718-5.914062 19.625-5.636719l13.4375 1.003907 1.179687-4.59375 2.019531-7.882813c.796875-3.132812 2.058594-6.066406 3.675782-8.742187 4.367187-7.183594 11.398437-12.472657 19.515624-14.675781 1.78125-.5 3.617188-.839844 5.492188-1.015626 1.414062-.132812 2.851562-.171874 4.296875-.121093 1.945313.070312 3.851563.328125 5.707031.738281 1.835938.398438 3.617188.960938 5.332032 1.660156.519531.214844 1.042968.441406 1.554687.6875 3.085937 1.453125 5.925781 3.378906 8.414063 5.695313.71875.65625 1.414062 1.355469 2.070312 2.089843 2.789062 3.085938 5.003906 6.714844 6.457031 10.722657.636719 1.742187 1.128907 3.566406 1.457031 5.441406l.53125 3.054687 1.652344 9.417969 12.667969.234375c.222656.011719.449219.011719.675781.011719h.101563c18.046875.707031 32.160156 15.957031 31.464843 34.007813-.011718.285156-.023437.5625-.054687.847656h-161.089844zm-130.511719-37.851562c-4.675781-10.769532-6.960937-23.210938-6.785156-36.996094.367188-31.476563 13.242188-62.570313 20.785156-78.152344 10.472657 3.25 26.945313 9.183594 43.515626 18.5 24.976562 14.050781 41.835937 30.859375 50.128906 49.945312.828125 1.9375 1.597656 3.925782 2.253906 5.871094.175781.523438.347656 1.058594.511719 1.578125l.03125.113281c3.023437 9.6875 4.140625 19.851563 3.976562 29.957032-.140625.164062-.285156.339844-.429687.503906l-.5625.6875c-8.703125 10.710938-13.589844 23.683594-14.132813 37.523438-.105469 2.796874-.03125 5.574218.214844 8.320312h-2.386719l-45.203125-104.199219-28.207031 12.238281 39.894531 91.960938h-32.050781c-14.953125-11.328125-25.582031-24.054688-31.554688-37.851562zm425.136719 68.597656c-.714843 10.660156-2.171875 21.15625-4.332031 31.421875v.003906h-440.8125s0 0 0-.003906c-2.160156-10.269531-3.617188-20.761719-4.332031-31.421875zm-318.210937 246.019531v-31.363281h186.945312v31.363281zm198.578125-62.109375h-210.210938c-50.371093-26.609375-87.730469-70.1875-106.515625-121.738281h423.242188c-18.785156 51.554687-56.144532 95.128906-106.515625 121.738281zm0 0"/></svg>