<?xml version="1.0" encoding="iso-8859-1"?>
<!-- Generator: Adobe Illustrator 19.0.0, SVG Export Plug-In . SVG Version: 6.00 Build 0)  -->
<svg version="1.1" id="Layer_1" xmlns="http://www.w3.org/2000/svg" xmlns:xlink="http://www.w3.org/1999/xlink" x="0px" y="0px"
	 viewBox="0 0 512 512" style="enable-background:new 0 0 512 512;" xml:space="preserve">
<g>
	<g>
		<path d="M447.521,95.632c-2.57-34.703-31.645-62.158-67.039-62.158c-32.603,0-59.852,23.295-65.958,54.091L0,194.377v284.149h512
			V206.339C512,158.753,489.755,120.667,447.521,95.632z M380.482,66.865c18.667,0,33.853,15.145,33.853,33.762
			c0,18.617-15.186,33.763-33.853,33.763s-33.853-15.146-33.853-33.763C346.629,82.01,361.815,66.865,380.482,66.865z
			 M316.771,122.065c8.981,26.545,34.137,45.716,63.711,45.716c26.162,0,48.865-15.007,59.977-36.845
			c20.693,15.149,33.036,34.799,36.859,58.708H117.779L316.771,122.065z M33.39,223.035h445.217v56.516
			c-7.39-0.923-12.764-2.444-18.627-4.107c-10.394-2.948-22.175-6.291-44.44-6.291s-34.045,3.343-44.438,6.291
			c-9.501,2.696-17.706,5.023-35.324,5.023c-17.62,0-25.825-2.328-35.327-5.023c-10.395-2.948-22.175-6.291-44.44-6.291
			s-34.046,3.343-44.441,6.291c-9.502,2.695-17.709,5.023-35.328,5.023c-17.622,0-25.828-2.328-35.33-5.023
			c-10.395-2.948-22.177-6.291-44.443-6.291c-22.265,0-34.047,3.343-44.443,6.291c-5.865,1.663-11.242,3.184-18.637,4.107V223.035z
			 M478.607,445.135H33.391v-46.849c12.163-1.146,20.322-3.447,27.749-5.554c9.502-2.695,17.709-5.023,35.329-5.023
			s25.827,2.329,35.329,5.023c10.395,2.948,22.177,6.291,44.443,6.291c22.264,0,34.046-3.342,44.441-6.291
			c9.502-2.695,17.709-5.023,35.328-5.023c17.62,0,25.825,2.327,35.326,5.023c10.394,2.948,22.175,6.291,44.44,6.291
			c22.263,0,34.044-3.342,44.438-6.291c9.501-2.696,17.706-5.023,35.325-5.023c17.62,0,25.825,2.329,35.326,5.023
			c7.426,2.107,15.583,4.408,27.742,5.554V445.135z M478.607,364.716c-7.391-0.923-12.767-2.444-18.628-4.107
			c-10.394-2.948-22.175-6.291-44.44-6.291s-34.045,3.342-44.438,6.291c-9.501,2.696-17.706,5.023-35.324,5.023
			c-17.62,0-25.825-2.327-35.327-5.023c-10.394-2.948-22.175-6.291-44.44-6.291s-34.046,3.342-44.441,6.291
			c-9.502,2.696-17.709,5.023-35.328,5.023c-17.622,0-25.828-2.329-35.33-5.024c-10.395-2.948-22.177-6.291-44.443-6.291
			c-22.265,0-34.047,3.342-44.443,6.291c-5.865,1.664-11.242,3.186-18.637,4.108v-51.593h0.002
			c12.163-1.146,20.322-3.447,27.749-5.554c9.502-2.696,17.709-5.023,35.329-5.023s25.827,2.327,35.329,5.023
			c10.395,2.948,22.177,6.291,44.443,6.291c22.264,0,34.046-3.342,44.441-6.291c9.502-2.696,17.707-5.023,35.327-5.023
			s25.825,2.327,35.327,5.023c10.395,2.948,22.175,6.291,44.44,6.291c22.263,0,34.044-3.342,44.438-6.291
			c9.501-2.696,17.706-5.023,35.325-5.023c17.62,0,25.825,2.327,35.326,5.023c7.426,2.107,15.583,4.408,27.742,5.554V364.716z"/>
	</g>
</g>
<g>
</g>
<g>
</g>
<g>
</g>
<g>
</g>
<g>
</g>
<g>
</g>
<g>
</g>
<g>
</g>
<g>
</g>
<g>
</g>
<g>
</g>
<g>
</g>
<g>
</g>
<g>
</g>
<g>
</g>
</svg>
